<svg xmlns="http://www.w3.org/2000/svg" width="27" height="27"><path fill="#666676" d="M10.772 5.497c-3.78.184-7.962 2.867-9.096 7.545-1.17 4.828 1.143 9.692 5.598 11.766 4.133 1.924 8.608.555 10.827-1.684-.123-.09-.26-.167-.366-.274-2.187-2.203-4.368-4.413-6.561-6.612a1.291 1.291 0 0 1-.409-.992c.013-3.077.007-6.154.007-9.231v-.518zm1.369 4.418c0 1.65.005 3.299-.006 4.95-.003.287.088.486.289.688 2.309 2.32 4.608 4.646 6.909 6.972.568.572.592.892-.019 1.415-.661.565-1.321 1.175-2.084 1.57-3.402 1.765-6.87 1.997-10.484.51C2.668 24.34-.382 19.641.039 14.608c.203-2.426 1.021-4.643 2.643-6.469 2.24-2.524 5.042-3.978 8.475-4.064.779-.02.984.187.984.973v4.867z"/><path fill="#666676" d="M18.173 2.613l-2.678-.542v3.126l2.678-2.584m6.222 6.37L21.83 11.48h3.077l-.513-2.495M22.44 5.599c-2.014 2-3.953 3.929-5.949 5.912.966 0 1.851-.012 2.736.006.303.007.513-.09.725-.302 1.182-1.184 2.381-2.351 3.564-3.535.07-.07.105-.267.058-.345-.362-.585-.75-1.153-1.134-1.736m-6.984 4.907l5.996-5.924c-.607-.411-1.146-.767-1.674-1.14-.215-.151-.352-.113-.53.068-1.183 1.21-2.38 2.405-3.568 3.612-.1.1-.212.25-.214.378-.019.955-.01 1.911-.01 3.006m-1.368-3.74l.001-5.16c.001-.669.269-.922.951-.882 4.737.271 8.114 2.575 10.178 6.829.69 1.42.98 2.935.999 4.506.006.566-.242.827-.802.828-3.51.005-7.018.005-10.527 0-.556-.002-.796-.265-.797-.834-.002-1.762 0-3.524-.002-5.286m4.351 9.822l5.032 4.89c.984-1.53 1.532-3.118 1.643-4.89H18.44zm2.86-1.4c1.428-.001 2.855-.003 4.282 0 .699.002.934.23.918.92-.054 2.5-.829 4.754-2.334 6.753-.334.444-.734.487-1.13.105-2.24-2.166-4.474-4.34-6.712-6.51-.235-.229-.373-.49-.242-.82.137-.345.428-.448.77-.448H21.3z"/></svg>