<svg width="111" height="92" xmlns="http://www.w3.org/2000/svg"><g fill="#9999AB" fill-rule="evenodd" opacity=".3"><path d="M37.384 44.012h70.676v-8.297H37.384v8.297zm-2.047 22.073c-.278.334-.47.605-.703.837a21801.7 21801.7 0 0 1-14.44 14.414c-1.13 1.129-1.708 1.124-2.852-.016a7702.862 7702.862 0 0 1-4.645-4.638c-.29.273-.531.489-.758.715-2.682 2.677-5.29 5.434-8.076 7.997-1.255 1.152-.981 2.371-.956 3.693h44.71c0-3.498.012-6.922-.021-10.345-.003-.3-.247-.653-.477-.885-2.35-2.374-4.718-4.731-7.084-7.091-1.517-1.514-3.037-3.026-4.698-4.681zm12.227 8.186V52.3H2.942v30.014c.348-.332.588-.55.817-.78 2.535-2.527 5.065-5.058 7.603-7.581.93-.925 1.69-.93 2.61-.022.977.964 1.956 1.926 2.91 2.91.616.635 1.193 1.306 1.806 1.983l9.87-9.848c1.9-1.896 3.794-3.799 5.705-5.683.75-.74 1.517-.736 2.274-.03.242.222.468.46.7.69l10.327 10.32zM21.323 2.891v46.443h13.166c0-3.247.009-6.432-.02-9.613-.003-.244-.24-.523-.436-.721-1.105-1.13-2.28-2.2-3.32-3.384-.312-.354-.46-1.059-.341-1.515.097-.371.68-.8 1.093-.855.418-.056.955.236 1.33.52.563.429 1.03.983 1.696 1.641 0-.44-.002-.587 0-.735.027-1.405.478-1.852 1.891-1.874.329-.005.661-.034.984.004.835.103 1.476-.142 2.032-.81.589-.707 1.271-1.343 1.953-1.968.61-.557 1.501-.52 2.02.019.542.558.555 1.27.03 1.94-.188.24-.396.464-.645.753h40.337V2.89h-61.77zm29.159 86.203h57.58v-42.1H37.395v2.404h11.06c1.596.002 2.026.43 2.026 2.002v37.694zm-32.09-39.696V2.028c0-1.618.393-2.026 1.984-2.026C41.584 0 62.79 0 83.999.001c1.612.001 2.002.394 2.002 2.001.002 9.865.002 19.731.002 29.596v1.199h22.786c1.805.001 2.21.405 2.21 2.207v54.81c0 1.834-.353 2.186-2.198 2.186H2.162C.37 91.999 0 91.634 0 89.865l.001-38.357c0-1.705.408-2.11 2.114-2.11h16.276z"/><path d="M68.954 74.008l8.992-6.01-8.992-6v12.01zm-2.944-6.016c0-2.81-.037-5.621.033-8.43.014-.507.346-1.225.756-1.442.414-.218 1.232-.122 1.656.155 4.258 2.773 8.478 5.604 12.693 8.438 1.142.77 1.135 1.811-.014 2.584-4.216 2.836-8.434 5.668-12.692 8.44-.42.274-1.246.359-1.657.135-.407-.224-.73-.941-.742-1.451-.069-2.808-.033-5.618-.033-8.429zm-4.052-49.986l10.049.001c.264 0 .533-.02.79.024.693.113 1.123.55 1.193 1.291.073.776-.243 1.349-.98 1.551-.361.098-.752.12-1.13.122-6.581.007-13.163.006-19.744.002a4.871 4.871 0 0 1-1.048-.098c-.736-.165-1.126-.712-1.085-1.478.042-.804.5-1.328 1.29-1.394.526-.045 1.057-.02 1.586-.021h9.08zm-26.825 2.576l5.71-5.561c.22-.212.426-.435.661-.627.643-.526 1.442-.522 2.004-.007.614.565.677 1.347.056 1.998-.942.986-1.941 1.918-2.918 2.87-1.39 1.355-2.779 2.71-4.173 4.06-.933.901-1.7.913-2.615.036a275.934 275.934 0 0 1-3.194-3.108c-.816-.809-.877-1.642-.198-2.272.628-.585 1.502-.501 2.276.243.783.756 1.548 1.531 2.391 2.368M18.105 63.005c-.002-1.726-1.403-3.12-3.119-3.1-1.704.02-3.11 1.451-3.089 3.147.02 1.665 1.409 3.03 3.092 3.042 1.744.013 3.12-1.35 3.116-3.09M21 62.996A5.973 5.973 0 0 1 15.024 69c-3.313.003-6.023-2.686-6.024-5.979-.003-3.285 2.71-6.007 5.997-6.02 3.286-.014 6 2.697 6.003 5.994m27.88-20.998c-1.073-.058-1.932-1.003-1.878-2.067.057-1.107 1.044-2.001 2.123-1.926 1.074.074 1.922 1.02 1.873 2.088-.05 1.129-.98 1.965-2.117 1.905M42.008 42c-1.116.008-1.982-.829-2.008-1.935-.023-1.126.871-2.059 1.985-2.065A2.02 2.02 0 0 1 44 40.042 1.975 1.975 0 0 1 42.008 42m12.958 0A1.954 1.954 0 0 1 53 40.03c-.008-1.128.907-2.046 2.015-2.03 1.067.016 1.97.923 1.985 1.991.014 1.107-.91 2.02-2.034 2.009"/></g></svg>