<svg width="41" height="32" xmlns="http://www.w3.org/2000/svg" xmlns:xlink="http://www.w3.org/1999/xlink"><defs><path id="a" d="M0 .868h40.906v31.13H.001z"/></defs><g fill="none" fill-rule="evenodd" opacity=".3"><g><mask id="b" fill="#fff"><use xlink:href="#a"/></mask><path d="M30.23 19.286c-1.755 1.866-3.48 3.696-5.207 5.532.086.1.148.176.212.248 1.206 1.346 2.416 2.692 3.618 4.048.15.168.3.234.524.234 2.834-.006 5.668-.004 8.5-.004h.378c0-.328-.016-.618.004-.906.016-.256-.064-.442-.238-.63-1.476-1.6-2.938-3.212-4.408-4.818-1.116-1.226-2.236-2.448-3.382-3.704zm-4.771 10.04c-4.08-4.562-8.108-9.064-12.152-13.582-.102.104-.184.19-.264.274C9.7 19.608 6.363 23.2 3.015 26.782c-.264.28-.394.55-.37.938.034.53.008 1.066.008 1.606h22.806zm12.714-5.272l.068-.056V3.55H2.677v19.694c.15-.16.26-.274.366-.39 3.034-3.26 6.066-6.52 9.1-9.778.104-.112.204-.228.316-.326.59-.504 1.394-.416 1.956.212l8.52 9.52c.094.108.194.214.302.332.136-.144.242-.252.346-.362l5.586-5.936c.668-.71 1.502-.71 2.158.008 2.218 2.426 4.436 4.856 6.652 7.284.07.078.128.164.194.246zM0 31.998h40.906V.868H0v31.13z" fill="#9898AA" mask="url(#b)"/></g><path d="M23.56 12.425a1.327 1.327 0 0 0 1.35-1.314c.009-.76-.581-1.348-1.347-1.346a1.308 1.308 0 0 0-1.328 1.326c-.002.746.58 1.33 1.326 1.334m.046-5.33c2.282.044 4.012 1.856 3.966 4.148-.046 2.128-1.918 3.894-4.074 3.846-2.218-.05-3.988-1.884-3.94-4.082.046-2.17 1.894-3.956 4.048-3.912" fill="#9898AA"/></g></svg>