<svg xmlns="http://www.w3.org/2000/svg" width="23" height="24"><path fill="#666676" d="M20.444 22.545c-.417-.979-.731-1.819-1.128-2.617-.289-.583-.205-1 .196-1.508 1.842-2.332 2.556-5.001 1.983-7.915-1.13-5.739-6.66-9.268-12.35-7.947C4.38 3.663.8 8.093 1.388 13.408c.678 6.126 6.67 10.174 12.64 8.59.998-.265 1.92-.267 2.902-.063 1.102.23 2.218.389 3.514.61M11.506.901c5.638.076 10.383 3.996 11.333 9.526.519 3.022-.127 5.84-1.939 8.344-.292.404-.337.72-.123 1.173.47.991.894 2.006 1.294 3.029.092.234.124.63-.008.78-.16.181-.543.278-.801.238-1.882-.3-3.755-.649-5.635-.96-.234-.039-.5.024-.733.093-2.52.743-5.031.727-7.469-.247C3.119 21.157.563 17.96.064 13.352-.551 7.67 3.319 2.497 8.944 1.24c.838-.186 1.707-.23 2.562-.34"/><path fill="#666676" d="M12.809 12.498c.006.646-.61 1.265-1.28 1.288-.69.024-1.32-.584-1.328-1.282-.008-.699.542-1.244 1.268-1.256.752-.013 1.334.53 1.34 1.25m1.484-.021c.005-.737.52-1.233 1.276-1.23.752.003 1.26.505 1.262 1.245.001.72-.605 1.32-1.304 1.294a1.284 1.284 0 0 1-1.234-1.309m-8.121-.016c.012-.733.534-1.224 1.291-1.213.74.01 1.255.53 1.248 1.261-.006.69-.589 1.278-1.27 1.278-.717-.001-1.282-.59-1.27-1.326"/></svg>