<svg xmlns="http://www.w3.org/2000/svg" width="29" height="14"><path fill="#666676" fill-rule="evenodd" d="M2.757 12.466a1.986 1.986 0 0 0 1.992-1.983c.008-1.092-.89-2.033-1.955-2.044C1.725 8.425.818 9.342.81 10.446c-.006 1.128.849 2.014 1.947 2.02m16.642-1.3c.006-1.13-.84-2.013-1.941-2.027-1.083-.012-1.985.884-1.998 1.986a1.966 1.966 0 0 0 1.957 2.01c1.13.004 1.974-.837 1.982-1.969m-9.61-5.863c1.06 0 1.98-.942 1.977-2.023-.006-1.087-.925-2.02-1.988-2.018-1.068 0-1.97.93-1.965 2.03.002 1.106.89 2.011 1.976 2.011m15.838.46c-.43-.134-.876-.236-1.287-.411-.274-.117-.453-.147-.678.084a337.376 337.376 0 0 1-3.697 3.775c-.238.24-.156.433-.043.685.54 1.202.306 2.472-.597 3.339a2.72 2.72 0 0 1-3.438.283c-1.112-.756-1.577-2.268-.97-3.51.254-.518.121-.777-.228-1.12a152.46 152.46 0 0 1-2.89-2.949c-.24-.25-.439-.298-.76-.13-.836.44-1.7.436-2.53-.006-.333-.178-.528-.094-.759.148-.786.821-1.574 1.643-2.388 2.439-.273.267-.275.48-.117.813.658 1.386.203 2.957-1.04 3.708a2.756 2.756 0 0 1-3.43-.467C-.138 11.482-.26 9.924.492 8.84c.77-1.11 2.154-1.561 3.342-.974.55.271.835.148 1.2-.252a45.43 45.43 0 0 1 2.08-2.123c.32-.31.396-.55.18-.987-.654-1.316-.156-2.93 1.063-3.665 1.208-.73 2.73-.463 3.598.683.699.92.828 1.955.305 2.997-.207.411-.139.642.165.942 1.003.991 1.993 2.004 2.964 3.026.26.276.459.313.798.127.832-.452 1.702-.447 2.525.016.355.199.566.17.843-.12 1.155-1.207 2.322-2.4 3.505-3.58.265-.267.277-.472.122-.811-.517-1.136-.402-2.234.428-3.179.757-.862 1.748-1.14 2.847-.798 1.192.37 1.82 1.257 1.976 2.468.21 1.608-1.128 3.072-2.806 3.154"/></svg>