<svg width="20" height="19" xmlns="http://www.w3.org/2000/svg"><path d="M1.154 1.116c.03.174.037.274.066.366.053.164.12.323.18.486.823 2.253 1.65 4.505 2.463 6.761.092.256.23.322.486.32 1.664-.011 3.328-.006 4.992-.006.097 0 .195-.005.289.008.234.033.436.242.413.445-.027.251-.185.392-.432.428-.066.01-.135.005-.202.004-1.674 0-3.348.008-5.021-.01-.316-.003-.454.107-.557.39-.834 2.311-1.683 4.616-2.524 6.925-.063.172-.107.351-.16.528l.069.053c.117-.053.237-.1.352-.159a28636.7 28636.7 0 0 0 12.398-6.196 1045.11 1045.11 0 0 0 3.605-1.81c.07-.036.122-.106.182-.16-.058-.056-.108-.126-.176-.164-.192-.109-.392-.205-.589-.304A49021.54 49021.54 0 0 0 2.481 1.767c-.418-.21-.838-.41-1.327-.65M1.132 19c-.8-.047-1.333-.798-1.06-1.56.613-1.708 1.246-3.408 1.87-5.112.32-.874.647-1.745.952-2.626a.765.765 0 0 0-.009-.474c-.58-1.607-1.174-3.21-1.761-4.813C.773 3.46.418 2.505.082 1.546-.078 1.084-.01.653.365.303c.343-.32.807-.399 1.256-.177 1.819.897 3.632 1.802 5.445 2.708 3.841 1.92 7.68 3.84 11.52 5.762.593.296.83.739.58 1.22-.122.234-.374.44-.616.564-1.383.714-2.78 1.396-4.173 2.092-4.201 2.101-8.401 4.203-12.605 6.3-.201.1-.425.153-.64.228" fill="#666676" fill-rule="evenodd"/></svg>