<svg width="19" height="19" xmlns="http://www.w3.org/2000/svg"><path d="M9.504 5.358a4.142 4.142 0 0 0-4.14 4.132c-.002 2.285 1.867 4.156 4.141 4.148a4.147 4.147 0 0 0 4.14-4.15 4.137 4.137 0 0 0-4.14-4.13m-7.377 9.894c.03-.125.07-.308.12-.49.144-.512.294-1.023.436-1.537a.282.282 0 0 0-.009-.168 55.256 55.256 0 0 0-.513-1.235.353.353 0 0 0-.142-.152c-.542-.311-1.086-.619-1.631-.924-.272-.152-.398-.375-.389-.69.012-.386.007-.772.002-1.159-.003-.268.103-.473.335-.606.558-.32 1.12-.635 1.676-.958a.42.42 0 0 0 .166-.181c.171-.392.334-.787.49-1.184a.4.4 0 0 0 .008-.235c-.165-.607-.336-1.212-.509-1.818-.081-.285-.009-.52.204-.725.278-.27.55-.543.817-.823.205-.215.443-.285.727-.205.605.17 1.21.344 1.817.51.073.019.165.018.234-.01.397-.156.793-.318 1.184-.489a.446.446 0 0 0 .19-.177c.319-.548.63-1.101.942-1.653a.633.633 0 0 1 .577-.34c.428-.004.856-.004 1.284 0a.624.624 0 0 1 .567.33c.321.564.638 1.129.962 1.69a.378.378 0 0 0 .163.15c.4.173.804.34 1.21.5a.352.352 0 0 0 .208.007c.616-.168 1.23-.344 1.844-.514a.667.667 0 0 1 .704.194c.28.287.565.568.852.848.2.195.265.423.19.691-.176.624-.352 1.247-.524 1.871a.284.284 0 0 0 .007.17c.168.417.34.833.518 1.246.024.057.08.11.135.141.546.313 1.094.623 1.643.931.268.15.389.37.38.68-.01.39-.006.782-.001 1.173.002.269-.105.472-.338.605-.558.32-1.119.635-1.675.958a.399.399 0 0 0-.162.169 35.47 35.47 0 0 0-.495 1.197.397.397 0 0 0-.007.234c.165.607.335 1.213.508 1.818.082.286.009.52-.204.726-.278.268-.551.541-.82.82-.201.21-.435.28-.714.203-.602-.168-1.204-.335-1.803-.509a.395.395 0 0 0-.29.013c-.387.168-.78.322-1.168.49a.375.375 0 0 0-.163.15c-.322.557-.637 1.118-.955 1.677a.64.64 0 0 1-.592.337c-.415.002-.829.001-1.243 0a.647.647 0 0 1-.602-.345c-.316-.56-.633-1.12-.955-1.677a.376.376 0 0 0-.162-.15c-.4-.173-.804-.34-1.21-.5a.351.351 0 0 0-.208-.007c-.616.167-1.23.343-1.845.513a.666.666 0 0 1-.703-.194c-.282-.291-.571-.575-.858-.86-.13-.13-.207-.28-.21-.527" fill="#9B9BAD" fill-rule="evenodd"/></svg>