<svg xmlns="http://www.w3.org/2000/svg" width="22" height="25"><path fill="#666676" d="M17.723 12.811c0-2.723.001-5.449-.004-8.172 0-.183-.031-.515-.089-.523a4.217 4.217 0 0 0-1.17-.044c-.083.011-.179.365-.18.563-.01 4.807-.008 9.612-.008 14.419 0 .834-.216 1.055-1.037 1.055-3.712.002-7.427.011-11.14-.011-.6-.006-.62.288-.625.738-.006.467.055.723.638.72 4.339-.022 8.677-.019 13.015-.002.487.002.613-.153.609-.622-.019-2.707-.01-5.414-.01-8.12m2.283 2.206v-1.716c0-2.152.004-4.301-.007-6.453-.002-.186-.08-.524-.155-.533-.39-.052-.805-.08-1.174.018-.114.032-.158.487-.158.75-.01 4.683-.008 9.366-.008 14.047 0 1.078-.092 1.174-1.148 1.174-3.66 0-7.32.01-10.979-.013-.592-.004-.636.279-.622.738.023.76.008.773.626.773 4.336.002 8.673-.002 13.009.008.461.001.63-.131.627-.622-.024-2.724-.01-5.447-.01-8.171M1.21 10.58l.001 8.066c0 .697.011.705.69.705h12.904c.683 0 .694-.01.694-.703.002-5.377.002-10.754 0-16.131 0-.696-.028-.722-.742-.722H1.955c-.727 0-.744.017-.744.771L1.21 10.58M0 10.573v-8.59C0 1.035.419.61 1.353.61h14.003c.938 0 1.343.42 1.353 1.373.007.814.007.814.83.818 1.026.003 1.443.424 1.449 1.452.003.734.003.734.74.738 1.101.004 1.544.447 1.544 1.544v16.967c0 1.08-.423 1.497-1.519 1.497H6.011c-1.069 0-1.511-.443-1.517-1.517-.005-.668-.004-.668-.688-.672-1.142-.003-1.523-.382-1.537-1.524-.008-.686-.024-.705-.694-.714-.122-.002-.244.002-.365-.005-.792-.037-1.207-.456-1.207-1.25C-.001 16.402 0 13.488 0 10.573"/><path fill="#666676" d="M5.408 4.324c-.485 0-.97.002-1.456 0-.312-.002-.478.12-.472.463.01.762.01 1.524-.002 2.286-.006.338.153.469.468.469a454.37 454.37 0 0 1 2.86.002c.316 0 .48-.126.475-.465-.01-.762-.01-1.524 0-2.287.005-.334-.15-.472-.47-.468-.468.002-.936 0-1.403 0zm-.002-.788c.552 0 1.107-.01 1.66.002.717.014.977.276.98.976.004.952.006 1.904-.001 2.856-.004.622-.292.941-.914.952-1.177.02-2.354.019-3.531 0-.619-.009-.877-.291-.88-.902-.004-.987-.004-1.974 0-2.962.003-.623.243-.89.867-.915.605-.024 1.212-.005 1.819-.005v-.002zm2.94 8.319h4.833c.157 0 .336-.035.46.033.13.069.269.235.281.37.012.1-.15.27-.273.319-.15.06-.341.035-.513.035H3.52c-.103 0-.229.035-.306-.01-.174-.1-.323-.241-.482-.365.157-.127.299-.332.472-.363.338-.057.69-.019 1.037-.019h4.106zm.011-1.331H3.526c-.157 0-.341.035-.46-.036-.14-.084-.284-.256-.308-.407-.01-.087.207-.238.347-.303.116-.052.271-.022.41-.022 3.222 0 6.443-.002 9.663.004.296 0 .727-.098.746.34.02.459-.404.424-.735.424H8.357zm.047 3.478h4.627c.157 0 .333-.037.464.022.168.072.299.225.444.344-.138.134-.26.297-.422.39-.107.062-.272.028-.41.028-3.172 0-6.344.002-9.516-.001-.34 0-.817.062-.83-.393-.013-.5.487-.382.806-.384 1.613-.011 3.224-.006 4.837-.006M6.27 16.116c.97 0 1.94-.017 2.91.015.184.007.49.184.518.328.068.33-.214.417-.506.417-1.958 0-3.916.011-5.873-.016-.196-.004-.534-.216-.556-.37-.053-.337.271-.374.545-.374h2.961"/></svg>