<?xml version="1.0" standalone="no"?>
<!DOCTYPE svg PUBLIC "-//W3C//DTD SVG 20010904//EN"
 "http://www.w3.org/TR/2001/REC-SVG-20010904/DTD/svg10.dtd">
<svg version="1.0" xmlns="http://www.w3.org/2000/svg"
 width="72.000000pt" height="72.000000pt" viewBox="0 0 72.000000 72.000000"
 preserveAspectRatio="xMidYMid meet">
<metadata>
Created by potrace 1.11, written by Peter Selinger 2001-2013
</metadata>
<g transform="translate(0.000000,72.000000) scale(0.100000,-0.100000)"
fill="#000000" stroke="none">
<path d="M315 599 c-37 -33 -71 -86 -61 -97 3 -3 30 -14 58 -24 52 -18 54 -18
110 3 l58 21 -18 30 c-19 33 -87 98 -102 98 -5 0 -25 -14 -45 -31z"/>
<path d="M161 443 c-6 -16 -13 -42 -14 -58 -2 -27 1 -30 38 -36 37 -6 43 -4
87 37 58 54 55 58 -68 80 -27 5 -32 2 -43 -23z"/>
<path d="M451 450 c-62 -22 -113 -54 -154 -96 -26 -26 -27 -30 -12 -39 10 -5
31 -21 46 -33 l29 -24 33 28 c45 38 105 62 170 67 16 1 18 7 13 40 -14 83 -31
91 -125 57z"/>
<path d="M119 313 c-15 -4 -13 -12 13 -61 17 -31 43 -67 57 -80 35 -31 95 -62
121 -62 12 0 19 -4 16 -8 -3 -5 1 -9 9 -9 8 0 12 5 8 10 -3 5 4 4 15 -2 30
-16 31 -15 23 22 -24 102 -105 172 -221 190 -14 2 -32 2 -41 0z"/>
<path d="M543 310 c-18 -4 -33 -6 -33 -5 0 7 -70 -32 -97 -54 l-30 -24 23 -56
c13 -31 27 -55 31 -54 46 14 68 28 105 67 51 53 78 113 57 127 -8 5 -16 8 -19
8 -3 -1 -20 -5 -37 -9z"/>
</g>
</svg>
