<?xml version="1.0" encoding="UTF-8"?>
<svg width="25px" height="21px" viewBox="0 0 25 21" version="1.1" xmlns="http://www.w3.org/2000/svg" xmlns:xlink="http://www.w3.org/1999/xlink">
    <!-- Generator: Sketch 51.2 (57519) - http://www.bohemiancoding.com/sketch -->
    <title>i-call</title>
    <desc>Created with Sketch.</desc>
    <defs>
        <polygon id="path-1" points="0 0.450692308 24.5 0.450692308 24.5 20.9997725 0 20.9997725"></polygon>
    </defs>
    <g id="Symbols" stroke="none" stroke-width="1" fill="none" fill-rule="evenodd">
        <g id="menu" transform="translate(-20.000000, -163.000000)">
            <g id="i-call" transform="translate(20.000000, 163.000000)">
                <g id="Group-3">
                    <mask id="mask-2" fill="white">
                        <use xlink:href="#path-1"></use>
                    </mask>
                    <g id="Clip-2"></g>
                    <path d="M1.12666207,16.1649923 C1.12666207,17.2602231 1.13004138,18.3538385 1.12497241,19.4490692 C1.12328276,19.7317615 1.13511034,19.9530692 1.53386897,19.9449923 C2.44966207,19.9288385 3.36714483,19.9336846 4.28293793,19.9433769 C4.6005931,19.9449923 4.71548966,19.8238385 4.71548966,19.5185308 C4.70704138,17.2747615 4.70704138,15.0277615 4.71717931,12.7823769 C4.71717931,12.4496077 4.5820069,12.3300692 4.24069655,12.3349154 C3.38066207,12.3462231 2.52231724,12.3543 1.66397241,12.3284538 C1.22128276,12.3139154 1.11145517,12.4867615 1.11990345,12.8793 C1.14017931,13.9745308 1.12666207,15.0681462 1.12666207,16.1649923 M19.7872138,16.1553 C19.7872138,17.2683 19.7956621,18.3796846 19.7838345,19.4943 C19.7804552,19.8141462 19.8818345,19.9530692 20.2383517,19.9466077 C21.133869,19.9288385 22.0327655,19.9336846 22.9282828,19.9433769 C23.240869,19.9466077 23.3692828,19.8367615 23.3692828,19.5266077 C23.3608345,17.2828385 23.3608345,15.0406846 23.3675931,12.7969154 C23.3675931,12.4835308 23.2645241,12.3284538 22.9063172,12.3349154 C22.0276966,12.3494538 21.1507655,12.3478385 20.2738345,12.3300692 C19.8919724,12.3219923 19.7787655,12.4689923 19.7821448,12.8179154 C19.7973517,13.9293 19.7872138,15.0423 19.7872138,16.1553 M23.2831103,11.2784538 C23.1411793,6.86683846 19.0150414,1.52153077 12.2344552,1.52153077 C5.53497241,1.52314615 1.36828276,6.74568462 1.18748966,11.2784538 L3.62904138,11.2784538 C5.58566207,11.2784538 5.82728276,11.5094538 5.8255931,13.3978385 C5.8255931,15.4429154 5.82897241,17.4879923 5.82390345,19.5330692 C5.82221379,20.5572231 5.36093793,20.9917615 4.28293793,20.9949923 C3.34686897,20.9982231 2.4108,21.0014538 1.47642069,20.9933769 C0.481213793,20.9853 0.0114896552,20.5378385 0.00811034483,19.5734538 C0.00135172414,17.0550692 -0.00540689655,14.5334538 0.00642068966,12.0150692 C0.0351448276,6.45653077 4.21873103,1.67337692 9.92638621,0.655684615 C16.4974552,-0.515469231 22.7694552,3.43091538 24.2056621,9.67599231 C24.3999724,10.5256846 24.465869,11.4141462 24.4793862,12.2848385 C24.5165586,14.6562231 24.4945931,17.0324538 24.4912138,19.4054538 C24.4895241,20.5814538 24.0586621,20.9933769 22.8438,20.9966077 C21.907731,20.9966077 20.9716621,21.0063 20.0355931,20.9917615 C19.173869,20.9788385 18.6754207,20.5216846 18.6686621,19.6994538 C18.6551448,17.3426077 18.6551448,14.9873769 18.6669724,12.6321462 C18.6720414,11.7533769 19.1620414,11.2962231 20.0998,11.2833 C21.1456966,11.2655308 22.1915931,11.2784538 23.2831103,11.2784538" id="Fill-1" fill="#666676" mask="url(#mask-2)"></path>
                </g>
                <path d="M13.2794329,3.50096293 C15.4290032,3.50096293 17.710145,4.50212423 19.647834,6.41359735 C19.8016188,6.56622448 20.0117914,6.71521763 20.0681792,6.90781854 C20.136528,7.14766117 20.1604501,7.57283675 20.0408397,7.65823526 C19.8580066,7.78905852 19.531641,7.72546388 19.2736242,7.68367312 C19.1659748,7.66732021 19.0788301,7.49652318 18.9831417,7.39658875 C15.5178567,3.76806041 10.0345728,3.74625653 6.55390929,7.34753003 C6.23437857,7.67822215 5.9028868,8.14882247 5.44836717,7.67277118 C4.97334289,7.17491602 5.46203693,6.82242002 5.76448045,6.50444683 C7.61502468,4.5602679 10.1815228,3.46280614 13.2794329,3.50096293" id="Fill-4" fill="#666676"></path>
            </g>
        </g>
    </g>
</svg>