<?xml version="1.0" encoding="UTF-8"?>
<svg width="27px" height="27px" viewBox="0 0 27 27" version="1.1" xmlns="http://www.w3.org/2000/svg" xmlns:xlink="http://www.w3.org/1999/xlink">
    <!-- Generator: Sketch 51.2 (57519) - http://www.bohemiancoding.com/sketch -->
    <title>i-dashboard</title>
    <desc>Created with Sketch.</desc>
    <defs>
        <polygon id="path-1" points="0 0.699764958 19.7654161 0.699764958 19.7654161 23.625 0 23.625"></polygon>
        <polygon id="path-3" points="0.588135938 0.718875 12.7156996 0.718875 12.7156996 12.8897006 0.588135938 12.8897006"></polygon>
    </defs>
    <g id="Page-1" stroke="none" stroke-width="1" fill="none" fill-rule="evenodd">
        <g id="dashboard" transform="translate(-19.000000, -84.000000)">
            <g id="i-dashboard" transform="translate(19.000000, 84.000000)">
                <g id="Group-3" transform="translate(0.000000, 3.375000)">
                    <mask id="mask-2" fill="white">
                        <use xlink:href="#path-1"></use>
                    </mask>
                    <g id="Clip-2"></g>
                    <path d="M10.7719875,2.1218625 C6.9919875,2.3058 2.8103625,4.988925 1.6763625,9.666675 C0.5052375,14.4954562 2.8188,19.3588312 7.2738,21.4327687 C11.4073313,23.3565187 15.8817375,21.9879562 18.1008,19.7494875 C17.9784563,19.6592062 17.840925,19.582425 17.7346125,19.4752687 C15.5476125,17.2722375 13.3665188,15.0616125 11.1736125,12.8628 C10.8892688,12.5776125 10.76355,12.2780812 10.7652375,11.8713937 C10.7778938,8.7942375 10.7719875,5.71708125 10.7719875,2.639925 L10.7719875,2.1218625 Z M12.14055,6.5397375 C12.14055,8.18926875 12.1464563,9.8388 12.1346438,11.489175 C12.1321125,11.7768937 12.2232375,11.9760187 12.42405,12.177675 C14.73255,14.4971437 17.0317688,16.8242062 19.332675,19.1495813 C19.9005188,19.7224875 19.9249875,20.0422688 19.3141125,20.56455 C18.6526125,21.1298625 17.9928,21.7398938 17.23005,22.1356125 C13.82805,23.8998937 10.3602375,24.131925 6.7456125,22.6443938 C2.66776875,20.966175 -0.38154375,16.2673313 0.03864375,11.2335187 C0.2419875,8.80689375 1.06126875,6.58951875 2.6821125,4.76364375 C4.92226875,2.24083125 7.7243625,0.78620625 11.1567375,0.7009875 C11.9355188,0.68158125 12.14055,0.8883 12.14055,1.67383125 C12.14055,3.2963625 12.14055,4.91805 12.14055,6.5397375 Z" id="Fill-1" fill="#FFFFFF" mask="url(#mask-2)"></path>
                </g>
                <g id="Group-6" transform="translate(13.500000, 0.000000)">
                    <mask id="mask-4" fill="white">
                        <use xlink:href="#path-3"></use>
                    </mask>
                    <g id="Clip-5"></g>
                    <path d="M4.67294062,2.61334687 C3.71106562,2.41844062 2.86056562,2.24631562 1.99487813,2.07081562 L1.99487813,5.19690937 C2.84031562,4.38100312 3.70178437,3.54990937 4.67294062,2.61334687 M10.8947531,8.98365937 C10.0214719,9.83415937 9.15325313,10.6795969 8.33144062,11.4794719 L11.4077531,11.4794719 C11.2212844,10.5715969 11.0449406,9.71519062 10.8947531,8.98365937 M8.94062812,5.59853437 C6.92659687,7.59990937 4.98765938,9.52787812 2.99219062,11.5106906 C3.95828437,11.5106906 4.84337813,11.4988781 5.72762812,11.5174406 C6.03137812,11.5241906 6.24062813,11.4271594 6.45325312,11.2145344 C7.63534687,10.0307531 8.83431563,8.86384688 10.0172531,7.68006562 C10.0872844,7.61087813 10.1218781,7.41259687 10.0746281,7.33497187 C9.71265937,6.75025312 9.32537813,6.18156562 8.94062812,5.59853437 M1.95690937,10.5057844 C3.98781562,8.50019063 5.93434688,6.57644062 7.95259687,4.58181562 C7.34594062,4.17090937 6.80678437,3.81484687 6.27859687,3.44275312 C6.06428437,3.29087812 5.92675312,3.32884687 5.74872187,3.51025312 C4.56494062,4.71934687 3.36765937,5.91494062 2.18134688,7.12150312 C2.08178437,7.22275312 1.96872188,7.37209687 1.96703437,7.50034687 C1.94847188,8.45547187 1.95690937,9.41144063 1.95690937,10.5057844 M0.588346875,6.76628437 C0.588346875,5.04672187 0.587503125,3.32631562 0.589190625,1.60675312 C0.590034375,0.935128125 0.857503125,0.682846875 1.53925312,0.722503125 C6.27606562,0.994190625 9.65275312,3.29847187 11.7174094,7.55181562 C12.4067531,8.97269062 12.6961594,10.4872219 12.7155656,12.0582844 C12.7223156,12.6235969 12.4742531,12.8851594 11.9140031,12.8860031 C8.40484687,12.8910656 4.89569062,12.8910656 1.38653437,12.8851594 C0.831346875,12.8843156 0.590878125,12.6210656 0.590034375,12.0515344 C0.587503125,10.2897844 0.589190625,8.52803437 0.588346875,6.76628437" id="Fill-4" fill="#FFFFFF" mask="url(#mask-4)"></path>
                </g>
                <path d="M18.4408607,16.5886181 C20.1654857,18.2651494 21.8040482,19.8573056 23.472142,21.4789931 C24.4559545,19.9492744 25.0035482,18.3613369 25.1149232,16.5886181 L18.4408607,16.5886181 Z M21.3003295,15.1888369 C22.7279545,15.1879931 24.1547357,15.1863056 25.581517,15.1888369 C26.2809857,15.1905244 26.5155482,15.4183369 26.5003607,16.1085244 C26.4463607,18.6093994 25.6709545,20.8630556 24.1657045,22.8618994 C23.8315795,23.3057119 23.431642,23.3487431 23.036767,22.9673681 C20.7966107,20.8006181 18.561517,18.6271181 16.323892,16.4561494 C16.0893295,16.2283369 15.9509545,15.9667744 16.0817357,15.6368681 C16.219267,15.2917744 16.509517,15.1888369 16.8529232,15.1888369 L21.3003295,15.1888369 Z" id="Fill-7" fill="#FFFFFF"></path>
            </g>
        </g>
    </g>
</svg>