<?xml version="1.0" encoding="UTF-8"?>
<svg width="23px" height="24px" viewBox="0 0 23 24" version="1.1" xmlns="http://www.w3.org/2000/svg" xmlns:xlink="http://www.w3.org/1999/xlink">
    <!-- Generator: Sketch 51.2 (57519) - http://www.bohemiancoding.com/sketch -->
    <title>i-message</title>
    <desc>Created with Sketch.</desc>
    <defs>
        <polygon id="path-1" points="0 0.901714286 23.0114286 0.901714286 23.0114286 24 0 24"></polygon>
    </defs>
    <g id="Symbols" stroke="none" stroke-width="1" fill="none" fill-rule="evenodd">
        <g id="menu" transform="translate(-21.000000, -236.000000)">
            <g id="i-message" transform="translate(21.000000, 236.000000)">
                <g id="Group-3">
                    <mask id="mask-2" fill="white">
                        <use xlink:href="#path-1"></use>
                    </mask>
                    <g id="Clip-2"></g>
                    <path d="M20.4444571,22.5454857 C20.0273143,21.5660571 19.7130286,20.7260571 19.3164571,19.9283429 C19.0273143,19.3454857 19.1107429,18.9272 19.5118857,18.4197714 C21.3541714,16.0883429 22.0684571,13.4186286 21.4947429,10.5054857 C20.3644571,4.76605714 14.8341714,1.23691429 9.14502857,2.55805714 C4.38045714,3.6632 0.799885714,8.09291429 1.38845714,13.4083429 C2.06617143,19.5340571 8.05817143,23.5820571 14.0284571,21.9980571 C15.0261714,21.7329143 15.9484571,21.7306286 16.9301714,21.9352 C18.0318857,22.1649143 19.1484571,22.3237714 20.4444571,22.5454857 M11.5061714,0.900914286 C17.1438857,0.977485714 21.8890286,4.89748571 22.8387429,10.4266286 C23.3576,13.4494857 22.7118857,16.2666286 20.9004571,18.7706286 C20.6078857,19.1752 20.5633143,19.4906286 20.7770286,19.9443429 C21.2467429,20.9352 21.6707429,21.9500571 22.0707429,22.9729143 C22.1633143,23.2072 22.1953143,23.6026286 22.0627429,23.7534857 C21.9027429,23.9340571 21.5198857,24.0312 21.2616,23.9912 C19.3804571,23.6917714 17.5073143,23.3420571 15.6273143,23.0312 C15.3930286,22.9923429 15.1278857,23.0552 14.8936,23.1237714 C12.3747429,23.8666286 9.86274286,23.8506286 7.42502857,22.8769143 C3.11874286,21.1569143 0.563314286,17.9603429 0.0638857143,13.3523429 C-0.550971429,7.67005714 3.31874286,2.49748571 8.94388571,1.24034286 C9.7816,1.05405714 10.6513143,1.01062857 11.5061714,0.900914286" id="Fill-1" fill="#666676" mask="url(#mask-2)"></path>
                </g>
                <path d="M12.8088,12.4980571 C12.8145143,13.1437714 12.1996571,13.7632 11.5299429,13.7860571 C10.8396571,13.8100571 10.2088,13.2020571 10.2008,12.5037714 C10.1928,11.8054857 10.7425143,11.2603429 11.4693714,11.2477714 C12.2213714,11.2352 12.8030857,11.7780571 12.8088,12.4980571" id="Fill-4" fill="#666676"></path>
                <path d="M14.2926857,12.4774857 C14.2984,11.7403429 14.8138286,11.2443429 15.5692571,11.2477714 C16.3212571,11.2500571 16.8298286,11.7517714 16.8309714,12.4923429 C16.8321143,13.2112 16.2264,13.8123429 15.5269714,13.7860571 C14.8286857,13.7597714 14.2869714,13.1860571 14.2926857,12.4774857" id="Fill-6" fill="#666676"></path>
                <path d="M6.17154286,12.4612571 C6.18411429,11.7275429 6.7064,11.2372571 7.46297143,11.2475429 C8.2024,11.2578286 8.71782857,11.7778286 8.71097143,12.5092571 C8.70525714,13.1995429 8.1224,13.7869714 7.44125714,13.7869714 C6.72354286,13.7858286 6.15897143,13.1972571 6.17154286,12.4612571" id="Fill-8" fill="#666676"></path>
            </g>
        </g>
    </g>
</svg>