<?xml version="1.0" encoding="UTF-8"?>
<svg width="29px" height="14px" viewBox="0 0 29 14" version="1.1" xmlns="http://www.w3.org/2000/svg" xmlns:xlink="http://www.w3.org/1999/xlink">
    <!-- Generator: Sketch 51.2 (57519) - http://www.bohemiancoding.com/sketch -->
    <title>i-program</title>
    <desc>Created with Sketch.</desc>
    <defs></defs>
    <g id="Symbols" stroke="none" stroke-width="1" fill="none" fill-rule="evenodd">
        <g id="menu" transform="translate(-18.000000, -395.000000)" fill="#666676">
            <path d="M20.7572025,407.465907 C21.8537809,407.46981 22.7435313,406.585913 22.7493849,405.483481 C22.7571898,404.390805 21.8596345,403.450323 20.7942754,403.438616 C19.7250139,403.424958 18.8177026,404.342025 18.8098978,405.446408 C18.8040442,406.574206 19.6586729,407.460054 20.7572025,407.465907 M37.3990479,406.166403 C37.4049015,405.036655 36.5580777,404.152758 35.4575968,404.139099 C34.3746769,404.127392 33.4732192,405.022996 33.4595608,406.125428 C33.4459023,407.235665 34.3200431,408.13322 35.4166215,408.135171 C36.5463704,408.139074 37.3912431,407.298104 37.3990479,406.166403 M27.7893529,400.303026 C28.8488584,400.303026 29.7698281,399.360593 29.7659257,398.279624 C29.7600721,397.192802 28.8410535,396.260125 27.7776457,396.262076 C26.7103354,396.262076 25.8088777,397.192802 25.8127801,398.291332 C25.8147313,399.397666 26.7025305,400.303026 27.7893529,400.303026 M43.627301,400.763511 C43.1960842,400.628878 42.751209,400.527415 42.3395043,400.351806 C42.0663353,400.234734 41.8868243,400.205466 41.6624355,400.435708 C40.4390286,401.703993 39.2078169,402.962521 37.964898,404.211294 C37.7268507,404.451292 37.8088014,404.644462 37.9219714,404.896168 C38.4624558,406.098111 38.2283109,407.368347 37.324902,408.234683 C36.382469,409.136141 34.9697951,409.255164 33.8868751,408.517608 C32.7746871,407.762491 32.3102998,406.250305 32.9171252,405.007386 C33.1707821,404.490317 33.0381,404.230806 32.688834,403.887394 C31.709328,402.919595 30.7512853,401.932284 29.7990962,400.93912 C29.5590978,400.689365 29.3600746,400.640585 29.0381255,400.808389 C28.2030088,401.249362 27.3386241,401.245459 26.509361,400.802535 C26.1757046,400.624975 25.9805839,400.708877 25.7503415,400.950827 C24.964005,401.772285 24.1757173,402.593743 23.362064,403.389836 C23.088895,403.657151 23.0869438,403.869833 23.2449915,404.203489 C23.9025483,405.588846 23.4479171,407.159568 22.2049982,407.910783 C21.0928101,408.581998 19.6703801,408.388828 18.7747761,407.444444 C17.8616111,406.482499 17.7406363,404.923485 18.491851,403.838613 C19.2625778,402.728377 20.6459837,402.277648 21.8342688,402.864961 C22.3845092,403.136179 22.6693855,403.013253 23.0342612,402.613255 C23.701574,401.879601 24.4020574,401.177167 25.114248,400.490342 C25.4342459,400.1801 25.510343,399.940102 25.293759,399.503031 C24.6401046,398.187918 25.1376624,396.574269 26.3571669,395.838664 C27.5649641,395.108913 29.0869056,395.376228 29.9551928,396.521587 C30.6537249,397.442557 30.7825046,398.476696 30.2595811,399.518641 C30.0527532,399.930346 30.1210454,400.160588 30.4254337,400.461074 C31.4283542,401.452287 32.4176162,402.464964 33.3893173,403.487396 C33.6488279,403.762516 33.847851,403.799589 34.187361,403.614225 C35.0185752,403.161545 35.8888136,403.167398 36.712223,403.629834 C37.0673427,403.828857 37.2780731,403.799589 37.5551445,403.510811 C38.7102591,402.303013 39.8770809,401.110826 41.0595125,399.930346 C41.3248766,399.66303 41.3365839,399.458153 41.1824385,399.118643 C40.6653686,397.983041 40.7804898,396.884511 41.6097529,395.940127 C42.3668212,395.077693 43.3580344,394.800622 44.456564,395.142083 C45.6487516,395.512813 46.2770403,396.398661 46.4331368,397.61036 C46.6438672,399.218155 45.3053391,400.68156 43.627301,400.763511" id="i-program"></path>
        </g>
    </g>
</svg>