<?xml version="1.0" encoding="UTF-8"?>
<svg width="22px" height="25px" viewBox="0 0 22 25" version="1.1" xmlns="http://www.w3.org/2000/svg" xmlns:xlink="http://www.w3.org/1999/xlink">
    <!-- Generator: Sketch 51.2 (57519) - http://www.bohemiancoding.com/sketch -->
    <title>i-toolkit</title>
    <desc>Created with Sketch.</desc>
    <defs>
        <polygon id="path-1" points="0.000102513228 0.609642857 21.2709821 0.609642857 21.2709821 24.9988929 0.000102513228 24.9988929"></polygon>
    </defs>
    <g id="Symbols" stroke="none" stroke-width="1" fill="none" fill-rule="evenodd">
        <g id="menu" transform="translate(-22.000000, -464.000000)">
            <g id="i-toolkit" transform="translate(22.000000, 464.000000)">
                <g id="Group-3">
                    <mask id="mask-2" fill="white">
                        <use xlink:href="#path-1"></use>
                    </mask>
                    <g id="Clip-2"></g>
                    <path d="M17.7225893,12.8110952 C17.7225893,10.0875238 17.7244345,7.36210714 17.7188988,4.63853571 C17.7188988,4.45585714 17.6875298,4.12371429 17.6303274,4.11633333 C17.2465179,4.05359524 16.8461012,4.02591667 16.4604464,4.07204762 C16.3774107,4.08311905 16.2814583,4.43740476 16.2796131,4.63484524 C16.2703869,9.44169048 16.2722321,14.2466905 16.2722321,19.0535357 C16.2722321,19.8875833 16.0563393,20.1090119 15.2352083,20.1090119 C11.5225893,20.1108571 7.808125,20.1200833 4.09550595,20.0979405 C3.49580357,20.0924048 3.47550595,20.3857976 3.46997024,20.8360357 C3.46443452,21.302881 3.52532738,21.559369 4.10842262,21.5556786 C8.44657738,21.5335357 12.7847321,21.5372262 17.1228869,21.5538333 C17.6100298,21.5556786 17.735506,21.4006786 17.7318155,20.9319881 C17.7133631,18.2250238 17.7225893,15.5180595 17.7225893,12.8110952 M20.0051488,15.018 L20.0051488,13.3019286 C20.0051488,11.150381 20.0088393,9.00067857 19.9977679,6.84913095 C19.9959226,6.6627619 19.9184226,6.32508333 19.8427679,6.31585714 C19.4534226,6.26419048 19.038244,6.2365119 18.6691964,6.33430952 C18.5547917,6.36567857 18.510506,6.82145238 18.510506,7.08347619 C18.5012798,11.7666905 18.503125,16.4499048 18.503125,21.1312738 C18.503125,22.2088929 18.4108631,22.3048452 17.3553869,22.3048452 C13.6944345,22.3048452 10.0353274,22.3159167 6.37622024,22.2919286 C5.78389881,22.2882381 5.7396131,22.5705595 5.754375,23.0300238 C5.77651786,23.7902619 5.76175595,23.8031786 6.37991071,23.8031786 C10.7162202,23.8050238 15.0525298,23.8013333 19.3888393,23.8105595 C19.8501488,23.8124048 20.0199107,23.6795476 20.0162202,23.1887143 C19.9922321,20.4651429 20.0051488,17.7415714 20.0051488,15.018 M1.20955357,10.5802024 C1.20955357,13.2687143 1.20955357,15.9572262 1.21139881,18.6457381 C1.21139881,19.3432381 1.22247024,19.350619 1.90151786,19.350619 C6.20276786,19.3524643 10.5040179,19.3524643 14.8052679,19.350619 C15.488006,19.350619 15.4990774,19.3413929 15.4990774,18.6475833 C15.5009226,13.2705595 15.5009226,7.89353571 15.4990774,2.5165119 C15.4990774,1.82085714 15.4713988,1.79502381 14.7572917,1.79502381 C10.489256,1.79502381 6.22306548,1.79502381 1.95502976,1.79502381 C1.22800595,1.79502381 1.21139881,1.81163095 1.21139881,2.56633333 C1.20955357,5.2382381 1.20955357,7.90829762 1.20955357,10.5802024 M0.000922619048,10.5728214 C0.000922619048,7.7090119 -0.000922619048,4.84704762 0.000922619048,1.9832381 C0.000922619048,1.03478571 0.417946429,0.610380952 1.3516369,0.610380952 C6.02008929,0.608535714 10.6866964,0.608535714 15.3551488,0.610380952 C16.2925298,0.610380952 16.6984821,1.02925 16.7077083,1.9832381 C16.7150893,2.7969881 16.7150893,2.7969881 17.5380655,2.80067857 C18.5640179,2.80436905 18.9810417,3.22508333 18.9865774,4.25288095 C18.9902679,4.98728571 18.9902679,4.98728571 19.7265179,4.99097619 C20.828125,4.99466667 21.2709821,5.43752381 21.2709821,6.53544048 L21.2709821,23.5024048 C21.2709821,24.581869 20.8484226,24.9988929 19.7523512,24.9988929 L6.0108631,24.9988929 C4.94247024,24.9988929 4.4996131,24.5560357 4.49407738,23.4821071 C4.48854167,22.814131 4.4903869,22.814131 3.80580357,22.8104405 C2.66360119,22.80675 2.28348214,22.4284762 2.26872024,21.2862738 C2.26133929,20.5998452 2.24473214,20.5813929 1.57491071,20.5721667 C1.453125,20.5703214 1.33133929,20.5740119 1.20955357,20.566631 C0.417946429,20.5297262 0.00276785714,20.1108571 0.00276785714,19.3174048 C-0.000922619048,16.4019286 0.000922619048,13.4882976 0.000922619048,10.5728214" id="Fill-1" fill="#666676" mask="url(#mask-2)"></path>
                </g>
                <path d="M5.40783929,4.3237381 C4.92254167,4.3237381 4.43724405,4.32558333 3.95194643,4.3237381 C3.64010119,4.32189286 3.47402976,4.44367857 3.47956548,4.78689286 C3.4906369,5.54897619 3.4906369,6.31105952 3.47772024,7.07314286 C3.47218452,7.41082143 3.630875,7.54183333 3.94641071,7.54183333 C4.90039881,7.5399881 5.85254167,7.5399881 6.80652976,7.54367857 C7.12206548,7.54367857 7.28629167,7.41820238 7.28075595,7.07867857 C7.27152976,6.31659524 7.27152976,5.5545119 7.28075595,4.79242857 C7.28629167,4.45844048 7.13129167,4.32004762 6.81022024,4.3237381 C6.343375,4.32558333 5.87468452,4.3237381 5.40783929,4.3237381 Z M5.40599405,3.53582143 C5.95772024,3.53582143 6.5131369,3.52659524 7.06670833,3.53766667 C7.78266071,3.55242857 8.04283929,3.81445238 8.04652976,4.51379762 C8.05022024,5.46594048 8.05206548,6.41808333 8.04468452,7.37022619 C8.04099405,7.99207143 7.7531369,8.31129762 7.13129167,8.32236905 C5.95402976,8.34266667 4.77676786,8.34082143 3.59950595,8.32236905 C2.98135119,8.31314286 2.72301786,8.03082143 2.71932738,7.42004762 C2.7156369,6.43284524 2.7156369,5.44564286 2.71932738,4.45844048 C2.72301786,3.83475 2.96289881,3.56719048 3.58658929,3.54320238 C4.19182738,3.51921429 4.79891071,3.53766667 5.40599405,3.53766667 L5.40599405,3.53582143 Z" id="Fill-4" fill="#666676"></path>
                <path d="M8.3460119,11.8552619 C9.95690476,11.8552619 11.5677976,11.8552619 13.1786905,11.8552619 C13.3355357,11.8552619 13.5145238,11.8202024 13.6381548,11.8884762 C13.7691667,11.95675 13.9075595,12.1228214 13.9204762,12.2575238 C13.9315476,12.3571667 13.7691667,12.5287738 13.647381,12.57675 C13.4960714,12.6376429 13.3060119,12.6118095 13.1344048,12.6118095 C9.92922619,12.6118095 6.72404762,12.6118095 3.51886905,12.6118095 C3.41553571,12.6118095 3.29005952,12.646869 3.21255952,12.6025833 C3.03910714,12.5029405 2.88964286,12.3608571 2.73095238,12.2372262 C2.88779762,12.1099048 3.02988095,11.9050833 3.20333333,11.8737143 C3.5410119,11.8165119 3.89345238,11.8552619 4.24035714,11.8552619 L8.3460119,11.8552619 Z" id="Fill-6" fill="#666676"></path>
                <path d="M8.35671429,10.5235536 C6.74582143,10.5235536 5.13492857,10.5235536 3.52588095,10.5235536 C3.36903571,10.5235536 3.1845119,10.5586131 3.06641667,10.488494 C2.92617857,10.4036131 2.78225,10.232006 2.7582619,10.0806964 C2.74719048,9.99397024 2.96492857,9.84266071 3.10516667,9.77807738 C3.22141667,9.72641071 3.37641667,9.75593452 3.51480952,9.75593452 C6.73659524,9.75593452 9.95838095,9.75408929 13.1783214,9.759625 C13.4735595,9.759625 13.9053452,9.66182738 13.9237976,10.0991488 C13.9440952,10.5586131 13.5196905,10.5235536 13.1893929,10.5235536 L8.35671429,10.5235536 Z" id="Fill-8" fill="#666676"></path>
                <path d="M8.40358333,14.0021964 L13.0314405,14.0021964 C13.1882857,14.0021964 13.3635833,13.9652917 13.4945952,14.0243393 C13.6625119,14.0963036 13.7935238,14.2494583 13.9392976,14.3675536 C13.8009048,14.502256 13.679119,14.6646369 13.5167381,14.758744 C13.4097143,14.8196369 13.2454881,14.7864226 13.1070952,14.7864226 C9.93513095,14.7864226 6.76316667,14.7882679 3.59120238,14.7845774 C3.25167857,14.7845774 2.7737619,14.8473155 2.76084524,14.3915417 C2.74792857,13.8914821 3.2479881,14.0095774 3.56721429,14.0077321 C5.17995238,13.9966607 6.79084524,14.0021964 8.40358333,14.0021964" id="Fill-10" fill="#666676"></path>
                <path d="M6.26919643,16.1161012 C7.23979167,16.1161012 8.2103869,16.099494 9.1791369,16.1308631 C9.36366071,16.138244 9.66997024,16.3153869 9.69764881,16.4593155 C9.76592262,16.7896131 9.48360119,16.8763393 9.19205357,16.8763393 C7.23425595,16.8763393 5.27645833,16.8874107 3.31866071,16.8597321 C3.12306548,16.8560417 2.7853869,16.6438393 2.76324405,16.4906845 C2.70973214,16.153006 3.03449405,16.1161012 3.30758929,16.1161012 C4.29479167,16.1161012 5.28199405,16.1161012 6.26919643,16.1161012" id="Fill-12" fill="#666676"></path>
            </g>
        </g>
    </g>
</svg>