<?xml version="1.0" encoding="UTF-8"?>
<svg width="22px" height="21px" viewBox="0 0 22 21" version="1.1" xmlns="http://www.w3.org/2000/svg" xmlns:xlink="http://www.w3.org/1999/xlink">
    <!-- Generator: Sketch 51.2 (57519) - http://www.bohemiancoding.com/sketch -->
    <title>i-wall</title>
    <desc>Created with Sketch.</desc>
    <defs>
        <polygon id="path-1" points="0.000532764693 1.26297382 21.0485815 1.26297382 21.0485815 7.33333333 0.000532764693 7.33333333"></polygon>
        <polygon id="path-3" points="0.000681962848 1.5895 6.56121481 1.5895 6.56121481 7.7143 0.000681962848 7.7143"></polygon>
        <polygon id="path-5" points="1.66364862 1.39650873 8.21883333 1.39650873 8.21883333 7.52368662 1.66364862 7.52368662"></polygon>
    </defs>
    <g id="Symbols" stroke="none" stroke-width="1" fill="none" fill-rule="evenodd">
        <g id="menu" transform="translate(-22.000000, -314.000000)">
            <g id="i-wall" transform="translate(22.000000, 313.000000)">
                <g id="Group-3" transform="translate(0.000000, 14.666667)">
                    <mask id="mask-2" fill="white">
                        <use xlink:href="#path-1"></use>
                    </mask>
                    <g id="Clip-2"></g>
                    <path d="M10.4786,6.47735 C13.4577667,6.47735 16.4369333,6.47735 19.4179333,6.47735 C20.1512667,6.47735 20.1531,6.47551667 20.1567667,5.72385 C20.1586,4.79435 20.1586,3.86301667 20.1567667,2.93351667 C20.1549333,2.10485 20.1549333,2.10301667 19.3317667,2.10301667 C14.4239333,2.10301667 9.51426667,2.10301667 4.6046,2.10301667 C3.58893333,2.10301667 2.57326667,2.11768333 1.55576667,2.09751667 C1.0681,2.08651667 0.8426,2.21668333 0.866433333,2.76485 C0.9086,3.77868333 0.9031,4.79801667 0.866433333,5.81368333 C0.849933333,6.33435 1.0131,6.49201667 1.53926667,6.48835 C4.51843333,6.46635 7.49943333,6.47735 10.4786,6.47735 M10.5281,7.33351667 C7.27026667,7.33351667 4.01426667,7.33351667 0.756433333,7.33168333 C0.0781,7.33168333 0.0066,7.26568333 0.00476666667,6.59651667 C0.0011,5.26918333 -0.00256666667,3.94185 0.00476666667,2.61635 C0.0139333333,1.20285 -0.189566667,1.26335 1.38343333,1.26335 C5.43326667,1.26518333 9.4831,1.26335 13.5347667,1.26335 L19.8946,1.26335 C21.0477667,1.26335 21.0477667,1.26335 21.0477667,2.38901667 C21.0477667,3.78601667 21.0496,5.18118333 21.0477667,6.57818333 C21.0459333,7.22901667 20.9451,7.33168333 20.3016,7.33168333 C17.0437667,7.33351667 13.7859333,7.33351667 10.5281,7.33351667" id="Fill-1" fill="#666676" mask="url(#mask-2)"></path>
                </g>
                <path d="M14.5203667,6.84346667 C16.1923667,6.84346667 17.8625333,6.83063333 19.5345333,6.85263333 C20.0112,6.85813333 20.1707,6.6803 20.1615333,6.2183 C20.1413667,5.1513 20.1450333,4.08246667 20.1578667,3.01546667 C20.1633667,2.59563333 20.0038667,2.44346667 19.5785333,2.4453 C16.2363667,2.4563 12.8942,2.4563 9.55203333,2.4453 C9.1212,2.44346667 8.9727,2.6048 8.97636667,3.02096667 C8.99103333,4.08796667 8.99653333,5.1568 8.97453333,6.22563333 C8.96353333,6.6968 9.1432,6.8563 9.6107,6.8508 C11.2460333,6.83246667 12.8832,6.84346667 14.5203667,6.84346667 M14.6248667,1.59463333 C16.5022,1.59463333 18.3795333,1.5928 20.2568667,1.59463333 C20.9370333,1.59463333 21.0470333,1.70096667 21.0470333,2.36096667 C21.0488667,3.89363333 21.0507,5.4263 21.0470333,6.95896667 C21.0470333,7.5603 20.8930333,7.71246667 20.2770333,7.71246667 C16.4692,7.71613333 12.6632,7.71613333 8.85903333,7.71246667 C8.2412,7.71246667 8.0982,7.5658 8.09636667,6.95346667 C8.09453333,5.4373 8.09453333,3.92113333 8.09636667,2.4068 C8.09636667,1.68813333 8.18803333,1.59463333 8.8902,1.59463333 C10.8023667,1.5928 12.7145333,1.59463333 14.6248667,1.59463333" id="Fill-4" fill="#666676"></path>
                <path d="M6.4834,9.59438333 C4.7949,9.59438333 3.10456667,9.60171667 1.41606667,9.58888333 C1.01823333,9.58521667 0.866066667,9.72455 0.871566667,10.13155 C0.891733333,11.2352167 0.891733333,12.3388833 0.871566667,13.4407167 C0.866066667,13.84405 1.00906667,13.99255 1.41056667,13.9907167 C4.77106667,13.9833833 8.1334,13.9833833 11.4939,13.9907167 C11.8917333,13.99255 12.0420667,13.8532167 12.0347333,13.4462167 C12.0127333,12.3792167 12.0054,11.30855 12.0365667,10.24155 C12.0512333,9.74838333 11.8990667,9.57605 11.3967333,9.58521667 C9.75956667,9.60905 8.1224,9.59438333 6.4834,9.59438333 M6.39906667,14.8542167 C4.52173333,14.8542167 2.6444,14.85605 0.767066667,14.8523833 C0.1144,14.8523833 0.00623333333,14.7478833 0.0044,14.1117167 C0.000733333333,12.56255 0.000733333333,11.01155 0.0044,9.46238333 C0.00623333333,8.83355 0.105233333,8.73455 0.723066667,8.73455 C4.5474,8.73271667 8.3699,8.73088333 12.1942333,8.73455 C12.8010667,8.73455 12.9092333,8.84455 12.9110667,9.47155 C12.9165667,11.0042167 12.9165667,12.5368833 12.9110667,14.06955 C12.9092333,14.7533833 12.8102333,14.8523833 12.1337333,14.8542167 C10.2234,14.85605 8.31123333,14.8542167 6.39906667,14.8542167" id="Fill-6" fill="#666676"></path>
                <g id="Group-10">
                    <mask id="mask-4" fill="white">
                        <use xlink:href="#path-3"></use>
                    </mask>
                    <g id="Clip-9"></g>
                    <path d="M3.23656667,6.84163333 C3.87273333,6.84163333 4.5089,6.8398 5.1469,6.84346667 C5.4494,6.8453 5.6254,6.76096667 5.6199,6.40346667 C5.60523333,5.2338 5.60523333,4.0623 5.6199,2.89446667 C5.62356667,2.5443 5.4659,2.44896667 5.1524,2.44896667 C3.88006667,2.4563 2.6059,2.4563 1.33356667,2.44896667 C1.0054,2.44896667 0.871566667,2.5828 0.875233333,2.9128 C0.8844,4.06596667 0.888066667,5.21913333 0.8734,6.3723 C0.8679,6.7463 1.0494,6.84896667 1.3794,6.8453 C1.99723333,6.83796667 2.6169,6.84163333 3.23656667,6.84163333 M3.30623333,1.59463333 C4.1679,1.59463333 5.02956667,1.60196667 5.89123333,1.59096667 C6.34956667,1.58363333 6.5604,1.79996667 6.5604,2.24363333 C6.56223333,3.84596667 6.5604,5.4483 6.5604,7.05063333 C6.56223333,7.50163333 6.3294,7.7143 5.8894,7.7143 C4.13123333,7.7143 2.3749,7.71246667 0.616733333,7.7143 C0.189566667,7.7143 -0.00293333333,7.5163 0.000733333333,7.07813333 C0.0099,5.4593 0.0117333333,3.83863333 0.000733333333,2.2198 C-0.00293333333,1.74313333 0.2244,1.58363333 0.6699,1.58913333 C1.5499,1.6038 2.42806667,1.59463333 3.30623333,1.59463333" id="Fill-8" fill="#666676" mask="url(#mask-4)"></path>
                </g>
                <g id="Group-13" transform="translate(12.833333, 7.333333)">
                    <mask id="mask-6" fill="white">
                        <use xlink:href="#path-5"></use>
                    </mask>
                    <g id="Clip-12"></g>
                    <path d="M4.91058333,6.6528 C5.54858333,6.6528 6.18475,6.64363333 6.82275,6.65646667 C7.17475,6.6638 7.32325,6.51346667 7.32141667,6.16696667 C7.31591667,5.02846667 7.31775,3.8918 7.32141667,2.75513333 C7.32325,2.4178 7.19491667,2.25463333 6.83191667,2.2583 C5.55775,2.2693 4.28175,2.26563333 3.00758333,2.26013333 C2.68125,2.2583 2.53825,2.3903 2.54008333,2.7203 C2.54558333,3.87346667 2.54741667,5.02846667 2.53825,6.18346667 C2.53458333,6.55196667 2.71608333,6.66013333 3.04975,6.65463333 C3.66941667,6.6473 4.29091667,6.6528 4.91058333,6.6528 M4.95825,1.4003 C5.80341667,1.4003 6.64675,1.39663333 7.49191667,1.4003 C8.06391667,1.40396667 8.21058333,1.54146667 8.21241667,2.0878 C8.21791667,3.67363333 8.20691667,5.25946667 8.21975,6.8453 C8.22341667,7.3403 7.97958333,7.52363333 7.51941667,7.5218 C5.79608333,7.51813333 4.07275,7.51446667 2.34941667,7.52363333 C1.87641667,7.5273 1.65825,7.34213333 1.66375,6.84713333 C1.67841667,5.2448 1.67658333,3.64063333 1.66375,2.0383 C1.66008333,1.56713333 1.87091667,1.39113333 2.32008333,1.39663333 C3.20008333,1.40763333 4.07825,1.4003 4.95825,1.4003" id="Fill-11" fill="#666676" mask="url(#mask-6)"></path>
                </g>
            </g>
        </g>
    </g>
</svg>