<?xml version="1.0" encoding="utf-8"?><svg xmlns="http://www.w3.org/2000/svg" xmlns:xlink="http://www.w3.org/1999/xlink"><symbol viewBox="0 0 9 7" id="i-arrow" xmlns="http://www.w3.org/2000/svg"><g fill-rule="evenodd"><path d="M0 2.243L1.414.828l4.243 4.243-1.414 1.414z"/><path d="M7.071.828l1.414 1.415-4.242 4.242-1.415-1.414z"/></g></symbol><symbol viewBox="0 0 25 21" id="i-call" xmlns="http://www.w3.org/2000/svg"><defs><path id="ba" d="M0 .45h24.5V21H0z"/></defs><g fill-rule="evenodd"><mask id="bb"><use xlink:href="#ba"/></mask><path d="M1.127 16.165c0 1.095.003 2.189-.002 3.284-.002.283.01.504.409.496a97.471 97.471 0 0 1 2.749-.002c.318.002.432-.12.432-.424a813.81 813.81 0 0 1 .002-6.737c0-.332-.135-.452-.476-.447-.86.011-1.719.02-2.577-.007-.443-.014-.553.159-.544.551.02 1.096.007 2.19.007 3.286m18.66-.01c0 1.113.009 2.225-.003 3.34-.004.32.098.458.454.452a87.834 87.834 0 0 1 2.69-.004c.313.004.441-.106.441-.416a992.727 992.727 0 0 1-.001-6.73c0-.313-.103-.469-.462-.462a71.5 71.5 0 0 1-2.632-.005c-.382-.008-.495.139-.492.488.015 1.111.005 2.224.005 3.337m3.496-4.877c-.142-4.411-4.268-9.756-11.049-9.756-6.699.001-10.866 5.224-11.047 9.756H3.63c1.957 0 2.198.231 2.197 2.12 0 2.045.003 4.09-.002 6.135-.002 1.024-.463 1.459-1.541 1.462-.936.003-1.872.006-2.807-.002-.995-.008-1.465-.455-1.468-1.42-.007-2.518-.013-5.04-.002-7.558C.036 6.457 4.22 1.673 9.926.655c6.571-1.17 12.843 2.776 14.28 9.021.194.85.26 1.738.273 2.609.038 2.371.016 4.747.012 7.12-.001 1.176-.432 1.588-1.647 1.592-.936 0-1.872.01-2.808-.005-.862-.013-1.36-.47-1.367-1.293a656.91 656.91 0 0 1-.002-7.067c.005-.879.495-1.336 1.433-1.349 1.046-.017 2.092-.005 3.183-.005" mask="url(#bb)"/><path d="M13.28 3.501c2.149 0 4.43 1.001 6.368 2.913.154.152.364.301.42.494.069.24.092.665-.027.75-.183.131-.51.067-.767.026-.108-.017-.195-.187-.29-.287-3.466-3.629-8.95-3.65-12.43-.05-.32.331-.651.802-1.106.326-.475-.498.014-.85.316-1.169 1.851-1.944 4.418-3.041 7.515-3.003"/></g></symbol><symbol viewBox="0 0 27 27" id="i-dashboard" xmlns="http://www.w3.org/2000/svg"><defs><path id="ca" d="M0 .7h19.765v22.925H0z"/><path id="cc" d="M.588.719h12.128v12.17H.588z"/></defs><g fill-rule="evenodd"><g transform="translate(0 3.375)"><mask id="cb"><use xlink:href="#ca"/></mask><path d="M10.772 2.122c-3.78.184-7.962 2.867-9.096 7.545-1.17 4.828 1.143 9.692 5.598 11.766 4.133 1.924 8.608.555 10.827-1.684-.123-.09-.26-.167-.366-.274-2.187-2.203-4.368-4.413-6.561-6.612a1.291 1.291 0 0 1-.409-.992c.013-3.077.007-6.154.007-9.231v-.518zm1.369 4.418c0 1.65.005 3.299-.006 4.95-.003.287.088.486.289.688 2.309 2.32 4.608 4.646 6.909 6.972.568.572.592.892-.019 1.415-.661.565-1.321 1.175-2.084 1.57-3.402 1.765-6.87 1.997-10.484.51-4.078-1.68-7.128-6.379-6.707-11.412C.242 8.807 1.06 6.59 2.682 4.764 4.922 2.24 7.724.786 11.157.7c.779-.02.984.187.984.973V6.54z" mask="url(#cb)"/></g><g transform="translate(13.5)"><mask id="cd"><use xlink:href="#cc"/></mask><path d="M4.673 2.613l-2.678-.542v3.126l2.678-2.584m6.222 6.37L8.33 11.48h3.077l-.513-2.495M8.94 5.599c-2.014 2-3.953 3.929-5.949 5.912.966 0 1.851-.012 2.736.006.303.007.513-.09.725-.302 1.182-1.184 2.381-2.351 3.564-3.535.07-.07.105-.267.058-.345-.362-.585-.75-1.153-1.134-1.736m-6.984 4.907l5.996-5.924c-.607-.411-1.146-.767-1.674-1.14-.215-.151-.352-.113-.53.068-1.183 1.21-2.38 2.405-3.568 3.612-.1.1-.212.25-.214.378-.019.955-.01 1.911-.01 3.006M.588 6.766l.001-5.16C.59.937.858.684 1.54.724c4.737.271 8.114 2.575 10.178 6.829.69 1.42.98 2.935.999 4.506.006.566-.242.827-.802.828-3.51.005-7.018.005-10.527 0-.556-.002-.796-.265-.797-.834-.002-1.762 0-3.524-.002-5.286" mask="url(#cd)"/></g><path d="M18.44 16.589l5.032 4.89c.984-1.53 1.532-3.118 1.643-4.89H18.44zm2.86-1.4c1.428-.001 2.855-.003 4.282 0 .699.002.934.23.918.92-.054 2.5-.829 4.754-2.334 6.753-.334.444-.734.487-1.13.105-2.24-2.166-4.474-4.34-6.712-6.51-.235-.229-.373-.49-.242-.82.137-.345.428-.448.77-.448H21.3z"/></g></symbol><symbol viewBox="0 0 23 24" id="i-message" xmlns="http://www.w3.org/2000/svg"><defs><path id="da" d="M0 .902h23.011V24H0z"/></defs><g fill-rule="evenodd"><mask id="db"><use xlink:href="#da"/></mask><path d="M20.444 22.545c-.417-.979-.731-1.819-1.128-2.617-.289-.583-.205-1 .196-1.508 1.842-2.332 2.556-5.001 1.983-7.915-1.13-5.739-6.66-9.268-12.35-7.947C4.38 3.663.8 8.093 1.388 13.408c.678 6.126 6.67 10.174 12.64 8.59.998-.265 1.92-.267 2.902-.063 1.102.23 2.218.389 3.514.61M11.506.901c5.638.076 10.383 3.996 11.333 9.526.519 3.022-.127 5.84-1.939 8.344-.292.404-.337.72-.123 1.173.47.991.894 2.006 1.294 3.029.092.234.124.63-.008.78-.16.181-.543.278-.801.238-1.882-.3-3.755-.649-5.635-.96-.234-.039-.5.024-.733.093-2.52.743-5.031.727-7.469-.247C3.119 21.157.563 17.96.064 13.352-.551 7.67 3.319 2.497 8.944 1.24c.838-.186 1.707-.23 2.562-.34" mask="url(#db)"/><path d="M12.809 12.498c.006.646-.61 1.265-1.28 1.288-.69.024-1.32-.584-1.328-1.282-.008-.699.542-1.244 1.268-1.256.752-.013 1.334.53 1.34 1.25m1.484-.021c.005-.737.52-1.233 1.276-1.23.752.003 1.26.505 1.262 1.245.001.72-.605 1.32-1.304 1.294a1.284 1.284 0 0 1-1.234-1.309m-8.121-.016c.012-.733.534-1.224 1.291-1.213.74.01 1.255.53 1.248 1.261-.006.69-.589 1.278-1.27 1.278-.717-.001-1.282-.59-1.27-1.326"/></g></symbol><symbol viewBox="0 0 29 14" id="i-program" xmlns="http://www.w3.org/2000/svg"><path d="M2.757 12.466a1.986 1.986 0 0 0 1.992-1.983c.008-1.092-.89-2.033-1.955-2.044C1.725 8.425.818 9.342.81 10.446c-.006 1.128.849 2.014 1.947 2.02m16.642-1.3c.006-1.13-.84-2.013-1.941-2.027-1.083-.012-1.985.884-1.998 1.986a1.966 1.966 0 0 0 1.957 2.01c1.13.004 1.974-.837 1.982-1.969m-9.61-5.863c1.06 0 1.98-.942 1.977-2.023-.006-1.087-.925-2.02-1.988-2.018-1.068 0-1.97.93-1.965 2.03.002 1.106.89 2.011 1.976 2.011m15.838.46c-.43-.134-.876-.236-1.287-.411-.274-.117-.453-.147-.678.084a337.376 337.376 0 0 1-3.697 3.775c-.238.24-.156.433-.043.685.54 1.202.306 2.472-.597 3.339a2.72 2.72 0 0 1-3.438.283c-1.112-.756-1.577-2.268-.97-3.51.254-.518.121-.777-.228-1.12a152.46 152.46 0 0 1-2.89-2.949c-.24-.25-.439-.298-.76-.13-.836.44-1.7.436-2.53-.006-.333-.178-.528-.094-.759.148-.786.821-1.574 1.643-2.388 2.439-.273.267-.275.48-.117.813.658 1.386.203 2.957-1.04 3.708a2.756 2.756 0 0 1-3.43-.467C-.138 11.482-.26 9.924.492 8.84c.77-1.11 2.154-1.561 3.342-.974.55.271.835.148 1.2-.252a45.43 45.43 0 0 1 2.08-2.123c.32-.31.396-.55.18-.987-.654-1.316-.156-2.93 1.063-3.665 1.208-.73 2.73-.463 3.598.683.699.92.828 1.955.305 2.997-.207.411-.139.642.165.942 1.003.991 1.993 2.004 2.964 3.026.26.276.459.313.798.127.832-.452 1.702-.447 2.525.016.355.199.566.17.843-.12 1.155-1.207 2.322-2.4 3.505-3.58.265-.267.277-.472.122-.811-.517-1.136-.402-2.234.428-3.179.757-.862 1.748-1.14 2.847-.798 1.192.37 1.82 1.257 1.976 2.468.21 1.608-1.128 3.072-2.806 3.154" fill-rule="evenodd"/></symbol><symbol viewBox="0 0 22 25" id="i-toolkit" xmlns="http://www.w3.org/2000/svg"><defs><path id="fa" d="M0 .61h21.271v24.389H.001z"/></defs><g fill-rule="evenodd"><mask id="fb"><use xlink:href="#fa"/></mask><path d="M17.723 12.811c0-2.723.001-5.449-.004-8.172 0-.183-.031-.515-.089-.523a4.217 4.217 0 0 0-1.17-.044c-.083.011-.179.365-.18.563-.01 4.807-.008 9.612-.008 14.419 0 .834-.216 1.055-1.037 1.055-3.712.002-7.427.011-11.14-.011-.6-.006-.62.288-.625.738-.006.467.055.723.638.72 4.339-.022 8.677-.019 13.015-.002.487.002.613-.153.609-.622-.019-2.707-.01-5.414-.01-8.12m2.283 2.206v-1.716c0-2.152.004-4.301-.007-6.453-.002-.186-.08-.524-.155-.533-.39-.052-.805-.08-1.174.018-.114.032-.158.487-.158.75-.01 4.683-.008 9.366-.008 14.047 0 1.078-.092 1.174-1.148 1.174-3.66 0-7.32.01-10.979-.013-.592-.004-.636.279-.622.738.023.76.008.773.626.773 4.336.002 8.673-.002 13.009.008.461.001.63-.131.627-.622-.024-2.724-.01-5.447-.01-8.171M1.21 10.58l.001 8.066c0 .697.011.705.69.705h12.904c.683 0 .694-.01.694-.703.002-5.377.002-10.754 0-16.131 0-.696-.028-.722-.742-.722H1.955c-.727 0-.744.017-.744.771L1.21 10.58M0 10.573v-8.59C0 1.035.419.61 1.353.61h14.003c.938 0 1.343.42 1.353 1.373.007.814.007.814.83.818 1.026.003 1.443.424 1.449 1.452.003.734.003.734.74.738 1.101.004 1.544.447 1.544 1.544v16.967c0 1.08-.423 1.497-1.519 1.497H6.011c-1.069 0-1.511-.443-1.517-1.517-.005-.668-.004-.668-.688-.672-1.142-.003-1.523-.382-1.537-1.524-.008-.686-.024-.705-.694-.714-.122-.002-.244.002-.365-.005-.792-.037-1.207-.456-1.207-1.25C-.001 16.402 0 13.488 0 10.573" mask="url(#fb)"/><path d="M5.408 4.324c-.485 0-.97.002-1.456 0-.312-.002-.478.12-.472.463.01.762.01 1.524-.002 2.286-.006.338.153.469.468.469a454.37 454.37 0 0 1 2.86.002c.316 0 .48-.126.475-.465-.01-.762-.01-1.524 0-2.287.005-.334-.15-.472-.47-.468-.468.002-.936 0-1.403 0zm-.002-.788c.552 0 1.107-.01 1.66.002.717.014.977.276.98.976.004.952.006 1.904-.001 2.856-.004.622-.292.941-.914.952-1.177.02-2.354.019-3.531 0-.619-.009-.877-.291-.88-.902-.004-.987-.004-1.974 0-2.962.003-.623.243-.89.867-.915.605-.024 1.212-.005 1.819-.005v-.002zm2.94 8.319h4.833c.157 0 .336-.035.46.033.13.069.269.235.281.37.012.1-.15.27-.273.319-.15.06-.341.035-.513.035H3.52c-.103 0-.229.035-.306-.01-.174-.1-.323-.241-.482-.365.157-.127.299-.332.472-.363.338-.057.69-.019 1.037-.019h4.106zm.011-1.331H3.526c-.157 0-.341.035-.46-.036-.14-.084-.284-.256-.308-.407-.01-.087.207-.238.347-.303.116-.052.271-.022.41-.022 3.222 0 6.443-.002 9.663.004.296 0 .727-.098.746.34.02.459-.404.424-.735.424H8.357zm.047 3.478h4.627c.157 0 .333-.037.464.022.168.072.299.225.444.344-.138.134-.26.297-.422.39-.107.062-.272.028-.41.028-3.172 0-6.344.002-9.516-.001-.34 0-.817.062-.83-.393-.013-.5.487-.382.806-.384 1.613-.011 3.224-.006 4.837-.006M6.27 16.116c.97 0 1.94-.017 2.91.015.184.007.49.184.518.328.068.33-.214.417-.506.417-1.958 0-3.916.011-5.873-.016-.196-.004-.534-.216-.556-.37-.053-.337.271-.374.545-.374h2.961"/></g></symbol><symbol viewBox="0 0 22 21" id="i-wall" xmlns="http://www.w3.org/2000/svg"><defs><path id="ga" d="M0 1.263h21.05v6.07H0z"/><path id="gc" d="M0 1.59h6.561v6.124H.001z"/><path id="ge" d="M1.664 1.397h6.555v6.127H1.664z"/></defs><g fill-rule="evenodd"><g transform="translate(0 13.667)"><mask id="gb"><use xlink:href="#ga"/></mask><path d="M10.479 6.477h8.939c.733 0 .735-.001.739-.753.002-.93.002-1.861 0-2.79-.002-.83-.002-.831-.825-.831H4.605c-1.016 0-2.032.015-3.05-.005-.487-.011-.712.119-.689.667a39.319 39.319 0 0 1 0 3.049c-.016.52.147.678.673.674 2.98-.022 5.96-.01 8.94-.01m.05.856c-3.259 0-6.515 0-9.773-.002-.678 0-.75-.066-.751-.735-.004-1.328-.008-2.655 0-3.98.009-1.414-.195-1.354 1.378-1.354 4.05.002 8.1 0 12.152 0h6.36c1.153 0 1.153 0 1.153 1.126 0 1.397.002 2.792 0 4.19-.002.65-.103.753-.746.753-3.258.002-6.516.002-9.774.002" mask="url(#gb)"/></g><path d="M14.52 5.843c1.672 0 3.343-.012 5.015.01.476.005.636-.173.627-.635-.02-1.067-.017-2.136-.004-3.203.005-.42-.154-.572-.58-.57-3.342.011-6.684.011-10.026 0-.43-.002-.58.16-.576.576a95.12 95.12 0 0 1-.001 3.205c-.011.47.168.63.636.625 1.635-.019 3.272-.008 4.91-.008m.104-5.248c1.877 0 3.755-.002 5.632 0 .68 0 .79.106.79.766.002 1.533.004 3.065 0 4.598 0 .601-.154.753-.77.753-3.808.004-7.614.004-11.418 0-.618 0-.76-.146-.763-.759V1.407c0-.719.092-.812.794-.812 1.912-.002 3.825 0 5.735 0M6.483 8.594c-1.688 0-3.378.008-5.067-.005-.398-.004-.55.136-.544.543.02 1.103.02 2.207 0 3.309-.006.403.137.552.539.55 3.36-.008 6.722-.008 10.083 0 .398.002.548-.138.54-.545a64.398 64.398 0 0 1 .003-3.204c.014-.494-.138-.666-.64-.657-1.637.024-3.275.01-4.914.01m-.084 5.26c-1.877 0-3.755.001-5.632-.003-.653 0-.76-.104-.763-.74-.003-1.55-.003-3.1 0-4.65.002-.628.101-.727.72-.727 3.823-.002 7.646-.004 11.47 0 .607 0 .715.11.717.737.006 1.532.006 3.065 0 4.598-.002.683-.1.782-.777.784-1.91.002-3.823 0-5.735 0"/><g transform="translate(0 -1)"><mask id="gd"><use xlink:href="#gc"/></mask><path d="M3.237 6.842c.636 0 1.272-.002 1.91.001.302.002.478-.082.473-.44-.015-1.17-.015-2.34 0-3.509.004-.35-.154-.445-.468-.445-1.272.007-2.546.007-3.818 0-.329 0-.462.134-.459.464.01 1.153.013 2.306-.002 3.46-.005.373.176.476.506.472.618-.007 1.238-.003 1.858-.003m.07-5.247c.86 0 1.723.007 2.584-.004.459-.007.67.209.67.653V7.05c.001.45-.232.663-.672.663-1.758 0-3.514-.002-5.272 0-.427 0-.62-.198-.616-.636C.01 5.46.01 3.838 0 2.22c-.004-.477.223-.636.669-.63.88.014 1.758.005 2.636.005" mask="url(#gd)"/></g><g transform="translate(12.833 6.333)"><mask id="gf"><use xlink:href="#ge"/></mask><path d="M4.91 6.653c.639 0 1.275-.01 1.913.003.352.008.5-.143.498-.489a423.296 423.296 0 0 1 0-3.412c.002-.337-.126-.5-.49-.497-1.273.011-2.55.008-3.823.002-.327-.002-.47.13-.468.46a272.6 272.6 0 0 1-.002 3.463c-.003.369.178.477.512.472.62-.008 1.24-.002 1.86-.002M4.959 1.4c.845 0 1.689-.003 2.534 0 .572.004.719.141.72.688.006 1.586-.005 3.171.008 4.757.003.495-.24.679-.7.677a694.26 694.26 0 0 0-5.17.002c-.474.003-.692-.182-.686-.677.014-1.602.013-3.206 0-4.809-.004-.47.207-.647.656-.641.88.01 1.758.003 2.638.003" mask="url(#gf)"/></g></g></symbol></svg>